<?xml version="1.0" encoding="utf-8"?><!-- Uploaded to: SVG Repo, www.svgrepo.com, Generator: SVG Repo Mixer Tools -->
<svg width="30px" height="30px" viewBox="0 0 64 64" xmlns="http://www.w3.org/2000/svg"><path d="m16.75 28.74c-.63-.12-1.29-.21-2.66-3s.28-4.35.72-5.32-.47-1-1-.93a6 6 0 0 0 -3.69 1.81c-1.56 1.57-2.84 4.7.53 7.7a6.57 6.57 0 0 0 7.63.78c.28-.28.12-.46 0-.78s-.91-.13-1.53-.26zm-2 .44a3.91 3.91 0 0 1 -4.12-1.94c-1.53-2.4-.78-5.25 2.25-6.4.41-.16.31.34.22.53a4.51 4.51 0 0 0 0 4.91c1.55 2.81 1.65 2.78 1.61 2.9zm7.79-8.84a2.14 2.14 0 0 0 -1.17 3.66c1.16 1 2.5.75 3.13-1s-.43-3-2-2.66zm1.21 2.39c-.35 1-1.1 1.13-1.75.55a1.19 1.19 0 0 1 .63-2c.84-.2 1.42.47 1.08 1.45zm29.23-6.15a1.7 1.7 0 0 0 -.89 2.88c.92.82 2 .6 2.49-.79s-.38-2.35-1.64-2.09zm1 1.9c-.28.77-.88.9-1.39.44a1 1 0 0 1 .5-1.61c.63-.14 1.1.39.82 1.17zm-41.92 17.2a2.41 2.41 0 0 0 -1 3.44c.53.91 2.75.78 3.28-1.5s-1.26-2.43-2.28-1.94zm1.51 1.91c-.3 1.28-1.55 1.35-1.85.84a1.35 1.35 0 0 1 .56-1.93c.58-.28 1.58-.19 1.29 1.09zm3.83-24.5s.25-.6.31-.78-.25-.22-.46-.19-.44.84-.44.84h-.31a7.48 7.48 0 0 0 -.5-1.43 1.41 1.41 0 0 0 -.66.21c-.16.1.34 1 .34 1a9.94 9.94 0 0 1 -1-.38c-.12-.09-.46.59-.46.75s.65.31.65.31-.62.19-.75.25 0 .53 0 .63a6.39 6.39 0 0 0 1.32-.06s-.85.93-1 1 .37.5.62.56 1.16-1 1.16-1l.34 1.4a1.38 1.38 0 0 0 .6-.21c.25-.19-.22-1.29-.22-1.29a1 1 0 0 0 .34-.31.61.61 0 0 0 .06-.56l1.1-.13c.28 0 .06-.46 0-.65s-1.04.04-1.04.04zm10-2.88a5.55 5.55 0 0 0 -1.22-.28l.82-.69a1.08 1.08 0 0 0 -.25-.4c-.16-.13-1 .53-1 .53s-.13-1.16-.1-1.34-.4-.07-.62.06.06 1.37.06 1.47-.56.09-.9.12-.19.6-.19.6l.59.25-.56.4c-.13.1.37.53.44.56s.65-.59.65-.59.13.22.22.41.41 1 .47 1.09.69-.12.84-.25-.06-.28-.25-.56a5 5 0 0 1 -.37-.85h1.06c.47 0 .25-.43.28-.53zm17.5-1.62c-.78.59-.84 1.06-.25 2s2.81.72 2.69-.82a1.56 1.56 0 0 0 -2.44-1.18zm.43 1.47c-.24-.37-.22-.56.1-.81a.64.64 0 0 1 1 .48c.05.62-.86.7-1.1.33zm8.6 14.22c-.18-.1-1.28 1-1.37 1a4 4 0 0 1 .15-1.28c.07-.22-.28-.18-.62-.18s-.38 1.53-.41 1.65-1.25 0-1.37 0l-.06.66 1.12.19s-.72.65-.87.75.18.56.4.71 1-1 1-1a13.11 13.11 0 0 0 .19 1.57c.09.22.63 0 .75 0a11.24 11.24 0 0 0 -.12-2.1s1.56-1.4 1.65-1.56-.25-.32-.44-.41zm-11.18 7.28a1.25 1.25 0 0 0 -1.88-1.41 1.59 1.59 0 0 0 -.53 2 1.33 1.33 0 0 0 2.41-.59zm-1.53-.73a.52.52 0 0 1 .79.59.56.56 0 0 1 -1 .24.69.69 0 0 1 .21-.83zm-.29 14.85a1.6 1.6 0 0 0 -.53 2 1.33 1.33 0 0 0 2.41-.56 1.25 1.25 0 0 0 -1.88-1.44zm1.14 1.32a.56.56 0 0 1 -1 .24.67.67 0 0 1 .22-.83.52.52 0 0 1 .78.59zm11.18-4.52a1.24 1.24 0 0 0 -1.88-1.48 1.58 1.58 0 0 0 -.53 2 1.33 1.33 0 0 0 2.41-.57zm-1.53-.73a.53.53 0 0 1 .79.6.56.56 0 0 1 -1 .23.69.69 0 0 1 .21-.88zm-.22 9.45a1.6 1.6 0 0 0 -.54 2 1.33 1.33 0 0 0 2.41-.56 1.24 1.24 0 0 0 -1.87-1.49zm1.14 1.27a.56.56 0 0 1 -1 .24.67.67 0 0 1 .22-.83.53.53 0 0 1 .78.54zm-6.14-16.1a4.85 4.85 0 0 0 .4-.75c0-.16-.44-.16-.59-.16s-.53.75-.53.75-.38-1.09-.44-1.25-.34 0-.53.16.19 1.06.19 1.06a5.44 5.44 0 0 1 -.75-.12c-.38-.1-.25.34-.32.5s.72.53.72.53-.59.06-.72.09-.15.47-.12.69.69.19.81.28-.53.78-.62.91.4.31.56.4 1-1.47 1.06-1.47a14.63 14.63 0 0 1 .5 1.5c.06.1.5-.06.66-.18s-.57-1.91-.57-1.91l1.22-.12a3 3 0 0 0 .16-.6c0-.15-1.09-.31-1.09-.31zm-5.5 16.5s.22-1.19.28-1.31-.16-.1-.35-.16-.43.63-.43.63a6.2 6.2 0 0 0 -.72-1.1c-.16-.06-.44.25-.44.25 0 .22.53 1.38.56 1.5s-1 .06-1.22.1-.09.93 0 1.18.5.28.5.28l-.06.69.78.13c.16 0 .57-1.25.57-1.25l.81.93.25-.09c.15-.06 0-.66 0-.66s.72.13.84.13.1-.25.1-.53-1.47-.72-1.47-.72zm-11.1-7.81c-.15-.32-1.78.15-2.06.31s-.16 3.25-.16 3.25a12.29 12.29 0 0 0 -2.28-.75 3.41 3.41 0 0 0 -2.15.28 3.77 3.77 0 0 0 0-.53 1.25 1.25 0 0 0 -.25-.66 3.56 3.56 0 0 0 .56-.47 1.78 1.78 0 0 0 .47-1.18c0-.19-.09-.25-.31-.25s-.53.68-.72.81a1.64 1.64 0 0 1 -1.16.44 4.35 4.35 0 0 1 -1.47-.07s-.28-1.09-.37-1.37-.47-.13-.69 0 .34 1.84.34 1.84a2 2 0 0 0 -.37 2.16 2.24 2.24 0 0 0 1.37 1.31 2.55 2.55 0 0 0 .16 1.19 1.32 1.32 0 0 0 1 1 14.28 14.28 0 0 0 .1 2.53c.15.28.56.16.71.12a12.31 12.31 0 0 0 0-2.43l.41.06s.16 1.81.22 2.09.5.25.69.16a8.31 8.31 0 0 0 -.07-2.13 4.63 4.63 0 0 0 1.16 0c.5-.09 1-.22 1-.22s.06 2.22.09 2.38.6.12.82 0a10.55 10.55 0 0 0 .06-2.56l.5-.37s.09 1.94.12 2.13.44 0 .59-.19a11.07 11.07 0 0 0 0-2.28l.25-.44a10.67 10.67 0 0 0 .15-2.53c.06-.62.16-2.16.22-2.28a7 7 0 0 1 1.17-.57c.18-.1.09-.47-.07-.78zm-9.65 3.81c-.16-.19-.85-1.38.43-1.59.45-.08 1.47-.29 1.69.15a.91.91 0 0 1 -.25 1.31 2.1 2.1 0 0 1 -1.84.13zm6.56 2.53a5.1 5.1 0 0 1 -3.66.25c-1.68-.37-1.75-1.31-1.22-1.84a5.19 5.19 0 0 1 3.22-1.13c1.53.13 2.07.63 2.22 1.13a1.23 1.23 0 0 1 -.53 1.59zm33.97-15.72c0-6.31.15-21.22-.16-25.94s-3.19-5.06-4.78-5.12-9.41-.31-17.16-.44-19.68-.78-24.75-.53-6.93 1.13-8.93 2.66-1.88 5.4-1.94 7.4c0 0-.06 8.82-.06 16.47s.37 23 .37 25.94.94 3.22 1.25 3.31a44 44 0 0 0 4.59.16c.32-.06 4.13-6.31 7.44-11.69s12.63-19.34 13.94-21 3.72-4.69 4.75-4.56.62 1.53.62 2.12-1.37 11.19-2.5 16.54-4.31 17.31-4.25 18.4 1 1 2.16 1 5.84 0 10.53-.09 8.44-.19 12-.5 6.53-1.41 6.94-2.88-.06-14.93-.06-21.25zm-25.69-15.53a6.33 6.33 0 0 0 -3.25 1.75c-.06-.12-2.59-2.72-2.41-4.62s.6-4 4.63-3 6.75 2.71 8.5 5.21 1.9 4.5 1.72 5.16a4.75 4.75 0 0 1 -.35.94s-2.18-3.88-2.34-3.88-.78.41-.63.57 2.79 4.06 2.57 4.15-.69.28-.69.28-2.19-3.87-2.38-3.93-.75.18-.62.31 2.34 3.72 2.25 3.75a7.25 7.25 0 0 1 -.81 0l-1.91-3.13s-.5.16-.44.28 1.69 2.91 1.57 2.91-1.57-.56-1.79-.66l-1.15-.5s.75-3.21.09-4.12-.78-1.69-2.56-1.47zm4.56-6.87c2.06.4 3 1.09 3.56 2.46a4 4 0 0 1 .07 2.63 18.49 18.49 0 0 0 -3.16-2.84 15.27 15.27 0 0 0 -3.12-1.94c.06-.13.59-.72 2.65-.31zm-2.75-3.91c-.47-.34-.81-1.31.41-1.56.88-.18 1.31.4 1.28.84s-1.22 1.06-1.69.72zm22.16 42.84c0 2.88 0 3.66-1.22 4.57s-6.25 1.59-11.19 1.68-10.62.16-12.5.16-2.78.09-2.84-.06 2.72-11.22 3.84-18 2.31-13.5 2.31-13.5a13.77 13.77 0 0 0 3.19 1c1.6.25 3.69-.25 4.44-1.91s.16-4.37-.09-5a7.41 7.41 0 0 0 -.82-1.37 8.67 8.67 0 0 0 .41-1.91 6.6 6.6 0 0 0 -.22-1.69 1.7 1.7 0 0 1 .81-.37 5.88 5.88 0 0 1 1.57 0 3.82 3.82 0 0 0 1.06 1.19c.53.28 2-.12 2.5-2a1.76 1.76 0 0 0 -1.53-2.46 3 3 0 0 0 -1.78 1.17 4.5 4.5 0 0 0 -.44 1 9.53 9.53 0 0 0 -1.47.06 10.06 10.06 0 0 0 -1.19.41 4.32 4.32 0 0 0 -1.68-2.28 4.55 4.55 0 0 0 -2.79-.9l-.87-1.87a1.55 1.55 0 0 0 .75-1.88c-.47-1.25-1.31-1.69-2.81-1.1a1.6 1.6 0 0 0 -.41 2.85 3.07 3.07 0 0 0 1.62.44l.44 1.5a2.18 2.18 0 0 0 -1.5.41 3.66 3.66 0 0 0 -.94.9 8.51 8.51 0 0 0 -4.12-.25 4 4 0 0 0 -3.53 4.25 8.33 8.33 0 0 0 2 4.59 9.93 9.93 0 0 0 1 1.16 76.53 76.53 0 0 0 -5.63 8.06c-3 4.84-8.78 14.12-10.78 17.34s-6 9.44-6.22 9.5a6.84 6.84 0 0 1 -2.81-.12c-.47-.35-.47-5.72-.4-8.78s-.38-21.44-.44-27.72-.88-11.6 2.22-14.04c1.3-1 3.68-1.71 7-2s16.37.47 22.56.72 16.31.41 18.34.47 3.94.94 4.1 3.75.15 13.85.15 19.75-.06 19.41-.09 22.28zm-10.5-38.62c.74-.33 1.06.81.84 1.56a1.09 1.09 0 0 1 -1.59.66c-.5-.35-.6-1.63.75-2.22zm-16.94 2.22a1.58 1.58 0 0 0 -1.06 1.19c.09.09.19.59.56.59s.09-.19.53-.66 1-.15 1.38-.22.25-.37.12-.68-.59-.54-1.53-.22z" fill="#1d1d1b"/></svg>
