<?xml version="1.0" encoding="utf-8"?>

<!-- Uploaded to: SVG Repo, www.svgrepo.com, Generator: SVG Repo Mixer Tools -->
<svg width="250px" height="250px" viewBox="0 0 64 64" xmlns="http://www.w3.org/2000/svg">

<path d="m30.59 35.25s-6.33.33-9.71-3-3.45-5.79-3.45-5.79-2.67.08-3.75-.84-1.3-3.25.33-4.79 2.42-1.41 2.42-1.41a19 19 0 0 1 .87-3.71 9 9 0 0 1 1.08-2.09l-4.54-2.5a2.29 2.29 0 0 1 -2.75.46 2.9 2.9 0 0 1 -.75-4.71 3.92 3.92 0 0 1 4.54-.33c1 .71.5 2.13.5 2.13l5.13 2.33a14.38 14.38 0 0 1 9.33-4 18.45 18.45 0 0 1 11.16 3 14.47 14.47 0 0 1 2.08 2.45l5.54-3.7a2.56 2.56 0 0 1 2-3.05 3 3 0 1 1 .75 5.75 3.52 3.52 0 0 1 -1-.41l-5.33 4.37a9.67 9.67 0 0 1 .75 1.88c.08.58.12 1.21.12 1.21s3.71-.21 3.58 3.29-4.12 4-4.12 4a9.44 9.44 0 0 1 -4.46 6.29 19.35 19.35 0 0 1 -7.71 2.83l.34 3.63a4.35 4.35 0 0 1 2.58 2c.83 1.54 1.87 3.33 2.29 3.33s2-1.37 2.58-1.83a3.17 3.17 0 0 0 .88-.92s-1.83-2.71.67-3.87 3.97.75 3.26 2.75-3.33 1.75-3.33 1.75-3.29 3.25-3.88 3.25a2.36 2.36 0 0 1 -1.71-.71 34.75 34.75 0 0 0 -2.41-4.12c-.46-.38-.79-.25-.84-.13s1.88 9.21 1.63 11.17a5.68 5.68 0 0 1 -1.75 3.25l.08 1s2.38-.34 2.84.91-1.21 2.21-2.38 2-1.37-.58-1.37-.75-.17-2.83-.17-2.83l-1-.17s.46 3.21 0 3.5-2.46.67-3.05.09a1.49 1.49 0 0 1 .75-2.42c1.3-.29 1.55-.13 1.55-.13v-1.25a4.43 4.43 0 0 1 -1.96-3.91c0-2.79 1.67-11.21 1.67-11.21s-.5-.54-1.59.79a14.82 14.82 0 0 0 -2.16 5.58c-.17 1.21-.21 1.63-.21 1.63a2.43 2.43 0 0 1 1.33 2.37 2.21 2.21 0 0 1 -3.33 1.63c-1.25-.79-1.08-2.71-.54-3.5a2.9 2.9 0 0 1 1.5-1s.91-5.09 2-6.54a4.88 4.88 0 0 1 2.5-2c.29-.09.62-.17.62-.17z" fill="#1d1d1b"/>

<g fill="#c8db89">

<path d="m11.88 7.16a1.71 1.71 0 0 1 2.38 1.3 1.88 1.88 0 1 1 -2.38-1.3z"/>

<path d="m51 6.58a1.7 1.7 0 0 1 2.37 1.29 1.88 1.88 0 1 1 -2.37-1.29z"/>

<path d="m16.22 21c.22-.07.12 1.42.33 2.46s.38 1.66.17 1.66-1.71.17-2-1.2a2.44 2.44 0 0 1 1.5-2.92z"/>

<path d="m46.13 20a1.55 1.55 0 0 1 1.92 1.37c.29 1.63-2.25 2.92-2.37 2.75s.37-1.42.41-2.21a8.88 8.88 0 0 1 .04-1.91z"/>

</g>

<path d="m15.43 9.83c.2 0 4.12 1.75 3.95 2.08s-.5.88-.62.8-3.58-1.71-3.67-1.92.34-.96.34-.96z" fill="#fab900"/>

<path d="m44 13c.17-.08 4.42-3.46 4.67-3.21s.7.63.5.83-4.46 3.84-4.59 3.63-.58-1.25-.58-1.25z" fill="#fab900"/>

<path d="m27 8.83c3-1.08 8.5-.67 12.87 2.25s4 11.5 3.92 12.46a8.83 8.83 0 0 1 -.62 2.08 14.89 14.89 0 0 0 -1.63-2.21c-.21 0-.75.38-.54.59a13.41 13.41 0 0 1 1.83 2.75c-.08.25-.79 1.41-.79 1.41a22.52 22.52 0 0 0 -1.83-2.66c-.17 0-.71.41-.63.54a20 20 0 0 1 1.88 3.12c-.13.21-1 1.09-1.09.92a20.22 20.22 0 0 0 -1.37-2.33c-.13 0-.59.21-.5.41s1.54 2.46 1.37 2.67a7 7 0 0 1 -1 .75s-.83-2-1-2-.92.38-.83.5 1.08 1.79.91 2a2.77 2.77 0 0 1 -.58.38l-1.15-1.46-.59.37s.92 1.42.75 1.46l-.83.25s-.5-1.12-.67-1.17-.83 0-.7.13a9.58 9.58 0 0 1 .54 1.21 19.33 19.33 0 0 1 -7.79 0 10.78 10.78 0 0 1 -8.34-8.8 15.83 15.83 0 0 1 1.84-11.33c1.45-2.37 4.04-3.37 6.57-4.29z" fill="#8ec480"/>

<path d="m22.59 12.12c.24-.17.63.17.5.38a6.26 6.26 0 0 0 -1.87 2.83c-.5 1.79-.29 2.21-.5 2.25s-.75 0-.79-.08a10.51 10.51 0 0 1 .75-2.88 7.57 7.57 0 0 1 1.91-2.5z" fill="#1d1d1b"/>

<path d="m30.68 10.33a6.64 6.64 0 0 1 8 7.46c-.68 6.21-9.63 8.62-12.63 4.46s-2.58-10.04 4.63-11.92z" fill="#1d1d1b"/>

<path d="m30.89 12.11a4.94 4.94 0 0 1 6 5.54c-.5 4.65-7.16 6.41-9.39 3.32s-1.97-7.47 3.39-8.86z" fill="#e6e4da"/>

<path d="m31.21 14.72a2.43 2.43 0 0 1 2.93 2.73c-.25 2.29-3.53 3.16-4.63 1.63s-.95-3.67 1.7-4.36z" fill="#1d1d1b"/>

<path d="m25.72 26.5a5.79 5.79 0 0 0 5.16 2.5 7.6 7.6 0 0 0 5.25-2.17c.34 0 1 .92.92 1.33s-2.21 2.75-6.29 2.5-6-2.87-6-3.08.62-1.08.96-1.08z" fill="#1d1d1b"/>

<path d="m32 37c.17 0 2 14 1.58 14.83s-2.58 1.42-3 0 .97-14.83 1.42-14.83z" fill="#8ec480"/>

<path d="m25.47 48.12c.7-.14 1.37.63 1.37 1.38a1.26 1.26 0 0 1 -1.71 1c-.62-.38-.87-2.13.34-2.38z" fill="#c8db89"/>

<path d="m43.55 38a1.46 1.46 0 0 1 1.45 1.29c0 .75-1.5 1.5-2 1.25s-.7-2.29.55-2.54z" fill="#c8db89"/>

</svg>