<?xml version="1.0" encoding="utf-8"?>

<!-- Uploaded to: SVG Repo, www.svgrepo.com, Generator: SVG Repo Mixer Tools -->
<svg width="250px" height="250px" viewBox="0 0 64 64" xmlns="http://www.w3.org/2000/svg">

<path d="m15.61 18.94-5.42-4.59a2.52 2.52 0 0 1 -3.29-.25c-1.58-1.54-1-4.5 1.38-5.54s5.12-.79 6 .84-.83 3-.83 3l5.12 3.6a25.21 25.21 0 0 1 9.37-5.71c5.92-2 14.79 1.17 16 1.71s2.29 1.17 2.29 1.17l2.84-2.54s-1.5-2.63.87-4.03a5.11 5.11 0 0 1 7.06 1.59c1.75 2.58.95 5.16-1.25 5.66a5.06 5.06 0 0 1 -3.88-.75l-2.54 2.67s3.71 3.08 4.29 9.67a37.68 37.68 0 0 1 -2.29 16.79c-1.55 3.62-3.33 7.08-3.33 7.08s3.54-.71 5.37 1.34 2.25 3.58 2.79 3.75 1.09.2.59 1.16a3.07 3.07 0 0 1 -2.84 1.29 6.59 6.59 0 0 0 -2.79-.25c-.67.25-3 1.46-5.37.42s-3.21-1.21-4.5-1-4 1.75-6.71 1.62a13.19 13.19 0 0 1 -4.29-1c-.34 0-2.5 1.79-5 1.63s-2.67-1.13-4.59-1-4.5.79-5.7.87-3.09.17-3.67-.16-.58-2.92.79-4.63a8.38 8.38 0 0 1 5-3.21 21 21 0 0 1 4 .17c.17 0-4.08-6-6.5-13.17s-1.58-14.2 1.03-18.2z" fill="#1d1d1b"/>

<path d="m49.53 51c-2.34-.33-4.3 2.12-4.55 2.33s-1-.54-1.16-.79 0-.21.41-.92a13 13 0 0 1 2.13-2 9.68 9.68 0 0 1 .42-1.25c.25-.59 1.91-4.09 3-7a45.58 45.58 0 0 0 2.22-14.14c-.09-4.92-1.75-9.83-6.92-12.38s-9.58-3.91-16.38-2.54-8.5 4.5-8.5 4.5l3.05 2.34c.44.33-2.82 4-3.32 3.84-.2-.06-3-2.64-3-2.64a9.79 9.79 0 0 0 -1.5 3.71c-.58 2.59-.54 7 1.05 12.63s5.92 13.12 5.92 13.12a23.24 23.24 0 0 1 2.6-.75 1.85 1.85 0 0 1 1.5.34s.25.66-.05.79a32.69 32.69 0 0 1 -3.87 1.5c-2 .62-3.29-.13-5.92.21s-3.84 4.1-3.84 4.54 1.46.29 2.87.16 3.29-1.25 4.42-1.29 2.17.75 4.83.84a6.16 6.16 0 0 0 4.29-1.38c.88-.46 2.05-2.58 3.59-3s2.25-.08 3.83.42a7.36 7.36 0 0 0 3.54 0 .79.79 0 0 1 .67.21c.25.2-.71 1.58-2.38 2s-5.45-.91-6-.79-.79 1.25-.62 1.42a13.13 13.13 0 0 0 4.67.67c2.08-.09 3.83-1.42 6.62-1.5s4.29 1.45 5 1.66 1.75-.46 2.54-.71 2.59 0 2.8-.2-1.63-3.64-3.96-3.95z" fill="#696a9b"/>

<path d="m47.44 13.52c.13-.08 2.92-2.71 2.92-2.71s-1.58-2 .42-3.33 4.62-.08 5.66 1.79-.29 3.63-1.5 3.5-2.58-1.08-3.08-.87-2.92 2.91-3.13 2.87a9.71 9.71 0 0 1 -1.29-1.25z" fill="#92a0d1"/>

<path d="m19.86 23.4a4.72 4.72 0 0 0 4.29-.21 6.69 6.69 0 0 0 2.42-3.29.63.63 0 0 1 .75.25c.21.29-.38 2.41-2 3.58a5.15 5.15 0 0 1 -3.92 1.21c-1.33-.09-1.58-.09-1.79-.34s.08-1.2.25-1.2z" fill="#1d1d1b"/>

<path d="m18.28 28.81c.19-.28.83 0 .79.38a6.14 6.14 0 0 0 .29 3.54c.71 1.87 1.08 1.92.92 2.21s-.71.58-1 .41a8.27 8.27 0 0 1 -1.28-3.35 4.74 4.74 0 0 1 .28-3.19z" fill="#1d1d1b"/>

<path d="m28.94 29.35a3.87 3.87 0 0 1 1.5-2.29c1.34-1 2.13-1.08 2.34-1s.45.5.29.71-1.46.23-2.34 1.23-.87 1.83-1.08 1.87-.5-.39-.71-.52z" fill="#1d1d1b"/>

<path d="m40.65 23.27a4.47 4.47 0 0 1 3 1.13c1.46 1.25 1.67 2.33 1.5 2.54a1.9 1.9 0 0 1 -.71.37 3.7 3.7 0 0 0 -1.37-2.31 8 8 0 0 0 -2.46-.83c-.17-.02-.21-.73.04-.9z" fill="#1d1d1b"/>

<path d="m34.9 31.6c1.14-.47 2.63.5 2.83 2.3s-.2 3-1.41 3-2.42-1.59-2.63-2.59a2.18 2.18 0 0 1 1.21-2.71z" fill="#1d1d1b"/>

<path d="m35.27 32.8c.61-.25 1.41.27 1.52 1.23s-.11 1.59-.76 1.61-1.29-.85-1.41-1.38a1.18 1.18 0 0 1 .65-1.46z" fill="#cbe7f5"/>

<path d="m41.23 29.85c1.19-.79 2.34.13 2.3 2.71a4.81 4.81 0 0 1 -2.75 4.25 1.3 1.3 0 0 1 -1.78-1.37c0-1.38 1.11-4.84 2.23-5.59z" fill="#1d1d1b"/>

<path d="m41.86 30.77c.44-.13 1.17 1.46.37 3.13s-1.62 1.83-1.83 1.7-.12-1.29.29-2.62.75-2.08 1.17-2.21z" fill="#cbe7f5"/>

<g fill="#1d1d1b">

<path d="m31.65 39.85c.75-.15 1.25.55 2.08 1.42s.84 1.5 2.21 1.63 1.92-.17 2 .12.17.46-.12.67-2.09 1.25-5.17.08-3.58-3.37-1-3.92z"/>

<path d="m48.44 34.9c.23-.14 1.59.83 1.46 1.16s-.08.42-.33.42a3.84 3.84 0 0 1 -1.71-.88c-.13-.29.29-.54.58-.7z"/>

<path d="m46.23 37.27c.14-.1 2.55.79 2.55 1.17s-.21.79-.42.79a12.17 12.17 0 0 1 -2.67-1 2.42 2.42 0 0 1 .54-.96z"/>

<path d="m45.32 39.85c.37-.06 3 1.59 3 1.84s-.09.46-.3.46-3.25-1.25-3.25-1.59a.83.83 0 0 1 .55-.71z"/>

<path d="m43.86 42.19c.27-.27 3.37 1.75 3.37 2s-.12.46-.33.46a17 17 0 0 1 -3.37-1.71c-.09-.25.2-.63.33-.75z"/>

<path d="m42.57 44.27c.24-.08 3.71 2.13 3.66 2.46a.75.75 0 0 1 -.29.5 31.8 31.8 0 0 1 -4-1.92 1.94 1.94 0 0 1 .63-1.04z"/>

<path d="m41.19 47s3.88 2.08 3.79 2.29 0 .38-.33.38-3.75-1.13-3.87-1.46.16-1.21.41-1.21z"/>

<path d="m40.23 49.31c.29-.09 2.17 1.13 2.05 1.42s-.09.42-.3.33a13.75 13.75 0 0 1 -2.37-1 2 2 0 0 1 .62-.75z"/>

</g>

<path d="m21.67 19.64c-2.59-1.85-9.64-7.2-9.6-7.41s1.41-.92.91-2-2.12-1.23-3.29-.96c-2.37.58-3.16 3.17-2 4s2.38-.17 2.75-.12 7.78 6.4 9.66 8.09z" fill="#92a0d1"/>

</svg>
