<?xml version="1.0" encoding="utf-8"?>

<!-- Uploaded to: SVG Repo, www.svgrepo.com, Generator: SVG Repo Mixer Tools -->
<svg width="200px" height="200px" viewBox="0 0 64 64" xmlns="http://www.w3.org/2000/svg">

<path d="m23.1 21.37a38 38 0 0 1 -4.25-3.46c-.67-.88-2.59-3.13-2.8-2.83s-1.79 3-2.16 3a42 42 0 0 1 -4.29-3.2 3.36 3.36 0 0 1 -3.92-1.55c-1.63-2.41 1.42-4.91 4-4.58s1.67 3.5 1.67 3.5 1.08.79 1.16.67 1.75-2.79 2.84-2.71 3.33 2.62 3.33 2.62 2.13-.25 3.13.75.83 2.5 1.25 2.55 2.2.54 2.2.54 1.75-5.75 6-6.38 11.21 7.29 11.21 7.29 2.34-4.83 3-5 3.88 2 4 1.88 3.13-3.59 3.13-3.59a2.7 2.7 0 0 1 .2-3.87 3.37 3.37 0 0 1 5.88 1.54c.79 2.92-3.54 3.71-3.54 3.71s-4.21 6.08-4.71 6.21-3.25-1.17-3.33-1-1.46 3.87-1.46 3.87a21.32 21.32 0 0 1 4.62 11.3c.5 6.58 0 10.58-4.16 12.58a25.3 25.3 0 0 1 -7.75 2.54c-1 .13-2.55.25-2.55.25l.38 1.79 3.17.46a1.84 1.84 0 0 1 1.91-1.33c1.54.08 1.34 2.08.74 2.61a1.52 1.52 0 0 1 -1.71.09c-.29-.21-.62-.5-.62-.5h-2.79a19.31 19.31 0 0 1 0 2.71l-.13.37.09 1s2.62.17 2.62.84-.83 1.7-1.29 1.66a5.44 5.44 0 0 1 -2-.71c-.08-.2-.29-2.58-.29-2.58h-.67a14.61 14.61 0 0 1 .13 2.71c-.17.17-2.55 1.38-3 1s-.92-2-.54-2.13 2.7-.33 2.7-.45.05-1 .05-1-.92-.54-.92-1.2-.08-1.63-.08-1.63a1.28 1.28 0 0 0 -1.09.75 9.34 9.34 0 0 0 -.54 1s.5 1.67-.67 2-2.5-1.17-1.91-2.29 1.87-.38 1.87-.38a11.36 11.36 0 0 1 1.79-2.13 8.39 8.39 0 0 1 .83-.46l.21-2s-5.37.71-9.08-.75-6.71-3.79-6.5-9.42 4.64-16.66 4.64-16.66z" fill="#1d1d1b"/>

<path d="m30.47 53.28c.3-.22.83.92.5 1.17s-1.29-.58-.5-1.17z" fill="#a42116"/>

<path d="m40.8 49.58c.62 0 1 .16 1 .7s-.75.75-1 .55-.33-1.25 0-1.25z" fill="#a42116"/>

<path d="m34.93 49.12c.21-.32 1.46 3.62 1.17 4a1.59 1.59 0 0 1 -1.5.21 17.92 17.92 0 0 1 .33-4.21z" fill="#e7413e"/>

<path d="m8.18 10.2c1.07 0 2.12-.08 2.29 1.21s-.67 2-2.12 2.21a1.65 1.65 0 0 1 -1.75-1.84c.08-.45.54-1.54 1.58-1.58z" fill="#f2910d"/>

<path d="m11.43 13.66c.18 0 1.21 1 1.54.71s2.67-3.09 2.83-3 2.59 3 3 2.87 1.21-.62 1.71-.37 1.17.62 1.25 1.08.13 2.33.75 2.46 2.21.21 2.17.42-1.13 2.41-1.13 2.41a7.28 7.28 0 0 1 -3.75-3c-1.58-2.37-2.5-3.29-3.16-3.58s-.92-.42-1.17-.17-1.25 2.59-1.83 2.67-2.88-1.75-2.88-2 .42-.46.67-.5z" fill="#fab900"/>

<path d="m43.3 18.12s2.09-4.75 2.63-4.46 3 2.17 3.42 2 3.91-4.29 4.12-4.17.5.17.38.34-3.67 5.41-3.85 5.37-3-1.5-3.24-1.2-1.83 4.42-2 4.17-1.46-2.05-1.46-2.05z" fill="#fab900"/>

<path d="m54.72 7.08c2.38-.63 3.21 1.37 2.71 2.58a2.28 2.28 0 0 1 -3.83.42c-1.25-1.55.6-2.87 1.12-3z" fill="#f2910d"/>

<path d="m31.35 11.91c1.89-.63 6.79 2.62 11.7 9s5.46 14.62 5.3 14.58-1.84-1.21-2-1.17-.38.55-.25.67 2.12 1.21 2.16 1.5-.08 1.13-.08 1.42a2 2 0 0 1 -.08.54 17.82 17.82 0 0 0 -2.63-1.45c-.12.13-.54.75-.33.84a15.32 15.32 0 0 1 2.79 1.7 4.53 4.53 0 0 1 -.5 1.17l-.17.21-2.83-2s-.88.42-.5.75 3 2 2.83 2.29-.91 1.04-.91 1.04a20.28 20.28 0 0 0 -2.85-2c-.29 0-.66.38-.5.54s2.67 2.09 2.5 2.21-1.08.63-1.08.63-2.08-1.55-2.25-1.59-.54.21-.54.38 2.12 1.58 2 1.66a7.46 7.46 0 0 1 -2 .63c-.13-.18-1.33-1.46-1.78-1.46s-.67.25-.5.42 1.54 1.17 1.37 1.29-7.33 1.42-11.37.71-6.59-1.72-7.85-5.26.71-11.08 2.88-16.54 4.34-11.62 7.47-12.71z" fill="#e7413e"/>

<g fill="#1d1d1b">

<path d="m23.64 39.87c.24-.17 1 .21.71.46s-.75.54-.88 1-.21.66-.42.62a.46.46 0 0 1 -.37-.54 3 3 0 0 1 .96-1.54z"/>

<path d="m25.68 41.45c.34 0 .79 1.33 2.17 1.63s3 .45 3.2.91a1 1 0 0 1 -.87 1.21 9.56 9.56 0 0 1 -4.08-1.62c-1-.88-1.25-2.13-.42-2.13z"/>

<path d="m28.85 19.08c-.06-.12.08-.67.75-2.3s1.83-2 2.08-1.75.33.5.17.67a3.56 3.56 0 0 0 -1.75 1.83c-.42 1.25-.34 1.42-.55 1.59s-.55.21-.7-.04z"/>

<path d="m27.35 24.41c-.06-.26 1.5-1.58 4.25-2.46s4.83-.71 4.87-.29a4.22 4.22 0 0 1 -.12 1.08 8.8 8.8 0 0 0 -4.8.46c-2.29 1-3.45 1.92-3.66 1.92s-.5-.5-.54-.71z"/>

<path d="m33.14 25c4.25-1.1 9.25 2 10 5.71s-.8 8.87-6.88 9.67-9.29-1.59-10-5.55.74-8.3 6.88-9.83z"/>

</g>

<path d="m33.41 26.29c3.51-.91 7.63 1.65 8.22 4.71s-.63 7.33-5.63 8-7.67-1.31-8.22-4.58.57-6.83 5.63-8.13z" fill="#e6e4da"/>

<path d="m33.83 28.37c2.35-.61 5.12 1.1 5.51 3.16a4.32 4.32 0 0 1 -3.8 5.35c-3.37.44-5.15-.88-5.52-3.07s.42-4.57 3.81-5.44z" fill="#1d1d1b"/>

<path d="m34.89 29.78c.47-.23 2.41 1.13 2.12 1.59s-2.25.58-2.46.37-.25-1.66.34-1.96z" fill="#e6e4da"/>

</svg>
