<?xml version="1.0" encoding="utf-8"?>

<!-- Uploaded to: SVG Repo, www.svgrepo.com, Generator: SVG Repo Mixer Tools -->
<svg width="40px" height="40px" viewBox="0 0 64 64" xmlns="http://www.w3.org/2000/svg">

<path d="m8.38 40.93a29.59 29.59 0 0 1 2-13.5c2.94-6.95 5.57-10 8.54-10.56a10.28 10.28 0 0 1 6.42 1.19c.26.24 1 .89 1 .89a11.94 11.94 0 0 1 7.25-3.7c1.9-.22 5 1.36 5 1.36a13.35 13.35 0 0 1 5.08 1.23c2.16 1.16 2.33 2.07 2.33 2.07s3.93 1.05 6.42 6 2.39 16.09 2.39 16.09 2.67.21 3 .9-.19 8.78-.39 9.16-10.56 6.13-20.19 7-16.36 0-23-2.73-7.23-4.53-7.45-5.39-.78-7.38-.44-8.27a3.68 3.68 0 0 1 2.04-1.74z" fill="#1d1d1b"/>

<path d="m6.65 13.05c-.11-.29 2.29-.41 2.32-.59s.16-2.24.41-2.31.4-.12.53 0 .54 2 .64 2 1.63.1 1.67.38-1.13 1-1.13 1 .5 1.26 0 1.44-1.08-.29-1.17-.16-1.14 1.32-1.42 1.19-.22-1.75-.26-2-1.48-.68-1.59-.95z" fill="#1d1d1b"/>

<path d="m18.56 5.19c.88-.33 2.58.27 2.22 1.6a2.17 2.17 0 0 1 -3.07 1.1c-.82-.58-.59-2.16.85-2.7z" fill="#1d1d1b"/>

<path d="m18.81 5.94c.42-.16 1.23.13 1.05.76a1 1 0 0 1 -1.46.53c-.4-.23-.28-1.03.41-1.29z" fill="#cbe7f5"/>

<path d="m26.89 8.85a1.54 1.54 0 0 1 2.17 1.35c.26 1.3-2.37 1.82-2.79 1a1.58 1.58 0 0 1 .62-2.35z" fill="#1d1d1b"/>

<path d="m27.23 9.53c.45-.18.9 0 1 .65s-1.12.86-1.32.48a.75.75 0 0 1 .32-1.13z" fill="#cbe7f5"/>

<path d="m45.66 8.13c.13 0 .59-2 .83-2.07s.59-.19.69 0a17.63 17.63 0 0 1 .27 2.05s1.68-.15 1.73.19-1.18.96-1.18 1.09.19 1.21 0 1.22-1.37-.46-1.61-.35-1.42 1.61-1.64 1.49-.8-.3-.65-.46 1-2.12 1-2.12a6.17 6.17 0 0 1 -1.55-.33c-.1-.15-.18-.52 0-.59s1.9-.07 2.11-.12z" fill="#1d1d1b"/>

<path d="m52.7 16.24a1.57 1.57 0 0 1 1.19 2.38c-.51 1-2.67 1.05-3 .13a1.76 1.76 0 0 1 1.81-2.51z" fill="#1d1d1b"/>

<path d="m52.55 17.07a.75.75 0 0 1 .57 1.14c-.24.5-1.28.51-1.44.06a.84.84 0 0 1 .87-1.2z" fill="#cbe7f5"/>

<path d="m10.29 40.52a29.8 29.8 0 0 1 1-10.13c1.45-4.68 4.06-9.73 6.48-11.17s5.23-1.34 8.51 1.78 4.59 11 4.87 13.82.41 10.81.29 10.88-2.72.67-8.72-.92-10.66-2.17-12.43-4.26z" fill="#e6e4da"/>

<g fill="#1d1d1b">

<path d="m14.79 25.48c-.14-.2.55-1.47 1.69-2.91s2.05-2.11 2.36-2 .64.72.52.82a6.9 6.9 0 0 0 -2.59 2.48c-.77 1.51-.64 2.19-.92 2.21a2.17 2.17 0 0 1 -1.06-.6z"/>

<path d="m28.41 36.27s.9.58.79.84-.2.35-.29.36-1-.36-1-.48.34-.77.5-.72z"/>

<path d="m27.47 38a12.26 12.26 0 0 1 2.4 2.16c0 .22 0 .53-.16.57a14.89 14.89 0 0 1 -2.67-2c-.04-.13.34-.68.43-.73z"/>

<path d="m26.32 40.08a31.94 31.94 0 0 1 3.27 3.08c0 .28 0 .63-.19.6a29 29 0 0 1 -3.51-3.07 2.41 2.41 0 0 1 .43-.61z"/>

<path d="m25.05 41.43c.22 0 3 3.35 3 3.35s-.86.32-1 .2a36.62 36.62 0 0 1 -2.67-3.14c.12-.1.67-.41.67-.41z"/>

<path d="m24.77 44.32a21.18 21.18 0 0 0 -1.65-2.13c-.16 0-.59.06-.58.25a10.55 10.55 0 0 0 1.46 2.11c.16.08.8-.23.77-.23z"/>

</g>

<path d="m9.82 42.11a57.31 57.31 0 0 0 11.58 4.24 49.12 49.12 0 0 0 17.86 1.12 41.33 41.33 0 0 0 11.87-3.42c1.11-.43 1.67-.93 2.21-.93s2.8.42 2.79.67-1.25 2.44-5.69 4.21a46.71 46.71 0 0 1 -22.25 3.71c-10.37-.82-15-4.4-17.25-5.5s-2.76-1.21-2.7-1.39-.19-1.68 0-1.91a9.29 9.29 0 0 1 1.58-.8z" fill="#e6e4da"/>

<path d="m38.15 48.31a3.14 3.14 0 0 1 2.85.19c1.07.72.4 1.6-.56 1.9a2.88 2.88 0 0 1 -2.74-.32 1 1 0 0 1 .45-1.77z" fill="#1d1d1b"/>

<path d="m38.91 48.88a1.38 1.38 0 0 1 1.24.08c.47.32.18.69-.23.82a1.23 1.23 0 0 1 -1.18-.14.44.44 0 0 1 .17-.76z" fill="#f2910d"/>

<path d="m48.51 45.83a3.16 3.16 0 0 1 2.83-.6c1.23.41.82 1.44 0 2a2.87 2.87 0 0 1 -2.72.43 1 1 0 0 1 -.11-1.83z" fill="#1d1d1b"/>

<path d="m49.4 46.18a1.34 1.34 0 0 1 1.22-.26c.52.18.35.62 0 .85a1.22 1.22 0 0 1 -1.17.19.44.44 0 0 1 -.05-.78z" fill="#f2910d"/>

<path d="m27.47 48.68a3.17 3.17 0 0 1 2.89.2c1.07.72.4 1.6-.56 1.9a2.91 2.91 0 0 1 -2.74-.32 1 1 0 0 1 .41-1.78z" fill="#1d1d1b"/>

<path d="m28.23 49.26a1.35 1.35 0 0 1 1.24.08c.46.31.17.69-.24.82a1.23 1.23 0 0 1 -1.18-.16.44.44 0 0 1 .18-.74z" fill="#f2910d"/>

<path d="m18.55 47a3.14 3.14 0 0 1 2.89.19c1.07.72.4 1.6-.55 1.91a2.87 2.87 0 0 1 -2.74-.33 1 1 0 0 1 .4-1.77z" fill="#1d1d1b"/>

<path d="m19.32 47.57a1.38 1.38 0 0 1 1.24.08c.46.32.17.69-.24.82a1.23 1.23 0 0 1 -1.18-.14.44.44 0 0 1 .18-.76z" fill="#f2910d"/>

<path d="m11.58 43.86a2.55 2.55 0 0 1 2.13 1c.61.84-.14 1.32-.94 1.28a2.28 2.28 0 0 1 -2-1 .82.82 0 0 1 .81-1.28z" fill="#1d1d1b"/>

<path d="m12 44.51a1.1 1.1 0 0 1 .92.4c.26.37-.07.57-.41.56a1 1 0 0 1 -.85-.43.35.35 0 0 1 .34-.53z" fill="#f2910d"/>

<path d="m8.39 46.53a52.3 52.3 0 0 0 11.63 5c7.12 2 11.91 2.84 19.45 1.57a59.57 59.57 0 0 0 14.62-4.56c.92-.46 2-1.48 2.1-1.27s.35 3.21.11 3.37a1.61 1.61 0 0 1 -.61.22 10.42 10.42 0 0 0 -.12-2.21c-.16-.06-.92.3-.91.49a9.61 9.61 0 0 1 .14 2.12c-.15.13-1.11.84-1.12.62s0-2.19-.15-2.18-.68.19-.73.35.14 2 .05 2.15-.61.26-.61.26a16.34 16.34 0 0 0 -.17-2.06c-.1 0-.93.24-.89.42s.17 2 .17 2l-.83.23a9.09 9.09 0 0 0 -.11-2c-.15 0-.93.21-.92.33a16 16 0 0 1 -.12 2.48 37.34 37.34 0 0 1 -11.58 3c-6.5.69-14.22.82-20.52-1.1s-8.27-4.28-8.57-5.11a13.49 13.49 0 0 1 -.31-4.12z" fill="#ddc07c"/>

<path d="m10.54 48.7c.09 0 .82.12 1 .42s.38 3.11 0 3.07a1.87 1.87 0 0 1 -1.11-.69c-.1-.19-.17-2.72.11-2.8z" fill="#1d1d1b"/>

<path d="m39.41 18.32c2.32-.32 6.69 2.15 6.59 6.23s-4.27 6.2-8.89 2.81-2.11-8.36 2.3-9.04z" fill="#cbe7f5"/>

<path d="m39.61 19.48c1.82-.28 5.24 1.69 5.16 4.88s-3.35 4.87-7 2.21-1.59-6.57 1.84-7.09z" fill="#1d1d1b"/>

<path d="m39.78 20.47a3.89 3.89 0 0 1 3.95 3.73c-.06 2.45-2.57 3.72-5.34 1.69s-1.24-5.02 1.39-5.42z" fill="#696a9b"/>

<path d="m39.42 21.45c.17-.14.71-.13.73.21a11.44 11.44 0 0 1 -1.35 2.89c-.12 0-.57-.25-.55-.34a19.4 19.4 0 0 1 1.17-2.76z" fill="#1d1d1b"/>

<path d="m41.28 21.64c.16-.11.5.06.6.24a15.69 15.69 0 0 1 -1.57 3.87c-.19-.05-.76-.17-.74-.27a39.77 39.77 0 0 1 1.71-3.84z" fill="#1d1d1b"/>

<path d="m42.57 23.07c.08-.06.58.19.52.38a11.08 11.08 0 0 1 -.94 2.24c-.19 0-.57-.1-.55-.25a13.45 13.45 0 0 1 .97-2.37z" fill="#1d1d1b"/>

<path d="m33.08 22.88a5.87 5.87 0 0 0 3 6 16.71 16.71 0 0 0 6 1.77 27.41 27.41 0 0 1 -3.51 2.88 36.5 36.5 0 0 1 -5.57-2.69c-1.11-.85-1.13-.69-1.11-.85s-.15-1-.32-2.46-.3-1.64-.28-1.73 1.71-2.8 1.79-2.92z" fill="#92a0d1"/>

<path d="m32.79 32.1a15 15 0 0 1 2.07 1.23c.42.26 1.12.51.94.8s-2.72 3.43-2.8 3.34-.43-5.27-.21-5.37z" fill="#696a9b"/>

<path d="m41.2 33.69s.86 1.64.44 5.39-1.43 6.18-1.17 6.29a7 7 0 0 0 2.39-.37 27.6 27.6 0 0 0 .6-6.85 21.6 21.6 0 0 0 -.91-5.4c-.16-.1-1.35.94-1.35.94z" fill="#ffffff"/>

<path d="m27.82 19.81s2.58-2.61 5.13-3a5.72 5.72 0 0 1 4.35 1.19l-1.47.61a4.21 4.21 0 0 0 -3.63 0 7.85 7.85 0 0 0 -3.44 2.44z" fill="#ffffff"/>

<path d="m47.43 22.66a10.12 10.12 0 0 1 4.38 6.43 85.85 85.85 0 0 1 1.32 9.54s-3.13-3.91-3.24-3.81-.54.41-.5.56 3.7 4.19 3.71 4.53a3.5 3.5 0 0 1 -.08.79l-.65.19s-3.41-3.51-3.5-3.48-.48.43-.4.65 3.21 3.33 3.06 3.47a8.17 8.17 0 0 1 -1.07.49 28.48 28.48 0 0 0 -2.46-2.47c-.15 0-.69.39-.53.6a27.42 27.42 0 0 1 2.1 2.39 3.74 3.74 0 0 1 -.64.34 18.2 18.2 0 0 0 -2.32-2c-.19.07-.51.47-.41.65s2 1.74 1.79 1.94a18.92 18.92 0 0 1 -2.48.91 9.55 9.55 0 0 1 -1.3.26 22.45 22.45 0 0 0 .68-8.33 31.12 31.12 0 0 0 -.76-5 22.31 22.31 0 0 0 2.75-3.53 6 6 0 0 0 .83-3.32 17.17 17.17 0 0 0 -.28-1.8z" fill="#e6e4da"/>

<path d="m50.3 31.86s1.68 1.57 1.73 2 .2.87 0 .94a5 5 0 0 1 -1.84-1.62 3.43 3.43 0 0 1 .11-1.32z" fill="#1d1d1b"/>

</svg>
