<?xml version="1.0" encoding="utf-8"?><!-- Uploaded to: SVG Repo, www.svgrepo.com, Generator: SVG Repo Mixer Tools -->
<svg width="35px" height="35px" viewBox="0 0 64 64" xmlns="http://www.w3.org/2000/svg"><path d="m8.24 14c0 .21 0 1.81.26 2s1.38-1.09 1.5-1.22.71.34 1.17.16 0-1.44 0-1.44 1.18-.69 1.13-1-1.58-.35-1.67-.38-.51-1.82-.64-2-.29-.11-.53 0-.46 2.15-.46 2.34-2.43.3-2.32.59 1.51.76 1.56.95zm12.54-7.21c.36-1.33-1.34-1.93-2.22-1.6-1.44.54-1.67 2.12-.85 2.7a2.17 2.17 0 0 0 3.07-1.1zm-2-.85c.42-.16 1.23.13 1.05.76a1 1 0 0 1 -1.46.53c-.37-.23-.25-1.03.44-1.29zm10.28 4.26a1.54 1.54 0 0 0 -2.17-1.35 1.58 1.58 0 0 0 -.62 2.38c.42.77 3.05.27 2.79-1.03zm-1.83-.67c.45-.18.9 0 1 .65s-1.12.86-1.32.48a.75.75 0 0 1 .32-1.13zm17.77-.36s-.84 1.95-1 2.12.42.35.65.46 1.39-1.39 1.64-1.49 1.43.36 1.61.35 0-1.09 0-1.22 1.28-.72 1.23-1.07-1.73-.19-1.73-.19a17.63 17.63 0 0 0 -.27-2.05c-.1-.21-.44-.13-.69 0s-.7 2.05-.83 2.07-2 0-2.18.12-.1.44 0 .59a6.17 6.17 0 0 0 1.57.31zm8.86 9.45a1.57 1.57 0 0 0 -1.19-2.38 1.76 1.76 0 0 0 -1.81 2.51c.36.92 2.52.9 3.03-.13zm-1.34-1.55a.75.75 0 0 1 .57 1.14c-.24.5-1.28.51-1.44.06a.84.84 0 0 1 .9-1.2zm-36.7 9c.28 0 .15-.7.92-2.21a6.9 6.9 0 0 1 2.59-2.48c.12-.1-.2-.74-.52-.82s-1.22.59-2.36 2-1.83 2.71-1.69 2.91a2.17 2.17 0 0 0 1.09.58zm13.09 11.4c.09 0 .18-.11.29-.36s-.79-.84-.79-.84c-.16-.05-.47.59-.47.72s.88.48.97.48zm.8 3.3c.19 0 .17-.35.16-.57a12.26 12.26 0 0 0 -2.4-2.2c-.09 0-.5.56-.43.75a14.89 14.89 0 0 0 2.67 2.02zm-.31 3c.16 0 .17-.32.19-.6a31.94 31.94 0 0 0 -3.27-3.08 2.41 2.41 0 0 0 -.43.61 29 29 0 0 0 3.51 3.06zm-1.39 1s-2.74-3.29-3-3.34c0 0-.55.31-.67.41a36.62 36.62 0 0 0 2.71 3.16c.1.1.95-.23.95-.23zm-4.01-.22c.2.08.84-.23.81-.23a21.18 21.18 0 0 0 -1.65-2.13c-.16 0-.59.06-.58.25a10.55 10.55 0 0 0 1.42 2.11zm16.48 5.85c1-.3 1.63-1.18.56-1.9a3.14 3.14 0 0 0 -2.89-.19 1 1 0 0 0 -.41 1.77 2.88 2.88 0 0 0 2.74.32zm-1.57-1.52a1.38 1.38 0 0 1 1.24.08c.47.32.18.69-.23.82a1.23 1.23 0 0 1 -1.18-.14.44.44 0 0 1 .17-.76zm9.69-1.23a2.87 2.87 0 0 0 2.72-.43c.84-.55 1.25-1.58 0-2a3.16 3.16 0 0 0 -2.83.6 1 1 0 0 0 .11 1.83zm.8-1.47a1.34 1.34 0 0 1 1.22-.26c.52.18.35.62 0 .85a1.22 1.22 0 0 1 -1.17.19.44.44 0 0 1 -.05-.78zm-19.6 4.6c1-.3 1.63-1.18.56-1.9a3.17 3.17 0 0 0 -2.89-.2 1 1 0 0 0 -.41 1.78 2.91 2.91 0 0 0 2.74.32zm-1.57-1.52a1.35 1.35 0 0 1 1.24.08c.46.31.17.69-.24.82a1.23 1.23 0 0 1 -1.18-.16.44.44 0 0 1 .18-.74zm-7.34-.16c.95-.31 1.62-1.19.55-1.91a3.14 3.14 0 0 0 -2.89-.19 1 1 0 0 0 -.4 1.77 2.87 2.87 0 0 0 2.74.33zm-1.57-1.53a1.38 1.38 0 0 1 1.24.08c.46.32.17.69-.24.82a1.23 1.23 0 0 1 -1.18-.14.44.44 0 0 1 .18-.76zm-6.55-1.48c.8 0 1.55-.44.94-1.28a2.55 2.55 0 0 0 -2.13-1 .82.82 0 0 0 -.79 1.23 2.28 2.28 0 0 0 1.98 1.05zm-.77-1.58a1.1 1.1 0 0 1 .92.4c.26.37-.07.57-.41.56a1 1 0 0 1 -.85-.43.35.35 0 0 1 .34-.53zm-1.46 4.19c-.28.08-.21 2.61-.17 2.8a1.87 1.87 0 0 0 1.11.69c.4 0 .16-2.76 0-3.07s-.85-.44-.94-.42zm27.26-22.13c3.62 2.66 6.9 1 7-2.21s-3.34-5.16-5.16-4.88c-3.46.52-5.47 4.44-1.84 7.09zm2-6.1a3.89 3.89 0 0 1 3.95 3.73c-.06 2.45-2.57 3.72-5.34 1.69s-1.26-5.02 1.37-5.42zm-1 4.08a11.44 11.44 0 0 0 1.35-2.89c0-.34-.56-.35-.73-.21a19.4 19.4 0 0 0 -1.17 2.76c-.02.09.43.32.55.34zm1.51 1.2a15.69 15.69 0 0 0 1.57-3.87c-.1-.18-.44-.35-.6-.24a39.77 39.77 0 0 0 -1.71 3.84c-.02.1.55.22.74.27zm1.84-.06a11.08 11.08 0 0 0 .94-2.24c.06-.19-.44-.44-.52-.38a13.45 13.45 0 0 0 -1 2.37c.01.15.43.29.58.25zm15.71 17.25c-.38-.69-3-.9-3-.9s.13-11.21-2.35-16.15-6.42-6-6.42-6-.21-.93-2.3-2.07a13.35 13.35 0 0 0 -5.08-1.23s-3.11-1.58-5-1.36a11.94 11.94 0 0 0 -7.31 3.77s-.76-.65-1-.89a10.28 10.28 0 0 0 -6.4-1.24c-3 .6-5.6 3.61-8.54 10.56a29.59 29.59 0 0 0 -2 13.5 3.68 3.68 0 0 0 -2 1.74c-.33.89.24 7.4.44 8.27s1 2.64 7.54 5.39 13.33 3.55 23 2.73 20-6.57 20.19-7 .62-8.42.23-9.12zm-11-15.16a6 6 0 0 0 .83-3.32 17.17 17.17 0 0 0 -.29-1.8 10.12 10.12 0 0 1 4.38 6.43 85.85 85.85 0 0 1 1.32 9.54s-3.1-3.91-3.21-3.81-.54.41-.5.56 3.7 4.19 3.71 4.53a3.5 3.5 0 0 1 -.08.79l-.65.19s-3.41-3.51-3.5-3.48-.48.43-.4.65 3.21 3.33 3.06 3.47a8.17 8.17 0 0 1 -1.07.49 28.48 28.48 0 0 0 -2.46-2.47c-.15 0-.69.39-.53.6a27.42 27.42 0 0 1 2.1 2.39 3.74 3.74 0 0 1 -.64.34 18.2 18.2 0 0 0 -2.32-2c-.19.07-.51.47-.41.65s2 1.74 1.79 1.94a18.92 18.92 0 0 1 -2.48.91 9.55 9.55 0 0 1 -1.3.26 22.45 22.45 0 0 0 .68-8.33 31.12 31.12 0 0 0 -.76-5 22.31 22.31 0 0 0 2.76-3.53zm-7.48-9.46c2.35-.32 6.72 2.15 6.62 6.23s-4.27 6.2-8.89 2.81-2.11-8.36 2.3-9.04zm-6.38 12.52c-1.11-.85-1.13-.69-1.11-.85s-.15-1-.32-2.46-.3-1.64-.28-1.73 1.71-2.8 1.79-2.92a5.87 5.87 0 0 0 3 6 16.71 16.71 0 0 0 6 1.77 27.41 27.41 0 0 1 -3.51 2.88 36.5 36.5 0 0 1 -5.57-2.69zm2.83 3.29c-.17.29-2.72 3.43-2.76 3.34s-.47-5.27-.25-5.37a15 15 0 0 1 2.07 1.23c.39.26 1.11.51.91.8zm5.4-.44s1.19-1 1.35-.95a21.6 21.6 0 0 1 .91 5.4 27.6 27.6 0 0 1 -.6 6.85 7 7 0 0 1 -2.39.38c-.26-.11.74-2.55 1.17-6.29s-.47-5.39-.47-5.39zm-8.23-16.87a5.72 5.72 0 0 1 4.3 1.18l-1.47.61a4.21 4.21 0 0 0 -3.63 0 7.85 7.85 0 0 0 -3.44 2.44l-.94-1.3s2.58-2.55 5.18-2.93zm-21.68 13.57c1.45-4.68 4.06-9.73 6.48-11.17s5.2-1.34 8.48 1.78 4.59 11 4.87 13.82.41 10.81.29 10.88-2.72.67-8.72-.92-10.66-2.13-12.43-4.22a29.8 29.8 0 0 1 1.03-10.17zm-3.08 14.43c0-.13-.19-1.68 0-1.91a9.29 9.29 0 0 1 1.56-.8 57.31 57.31 0 0 0 11.6 4.24 49.12 49.12 0 0 0 17.86 1.12 41.33 41.33 0 0 0 11.87-3.42c1.11-.43 1.67-.93 2.21-.93s2.8.42 2.79.67-1.25 2.44-5.69 4.21a46.71 46.71 0 0 1 -22.25 3.71c-10.37-.82-15-4.4-17.25-5.5s-2.76-1.21-2.7-1.39zm48.06 5.87a1.61 1.61 0 0 1 -.61.22 10.42 10.42 0 0 0 -.12-2.21c-.16-.06-.92.3-.91.49a9.61 9.61 0 0 1 .14 2.12c-.15.13-1.11.84-1.12.62s0-2.19-.15-2.18-.68.19-.73.35.14 2 .05 2.15-.61.26-.61.26a16.34 16.34 0 0 0 -.17-2.06c-.1 0-.93.24-.89.42s.17 2 .17 2l-.83.23a9.09 9.09 0 0 0 -.11-2c-.15 0-.93.21-.92.33a16 16 0 0 1 -.12 2.48 37.34 37.34 0 0 1 -11.58 3c-6.5.69-14.22.82-20.52-1.1s-8.27-4.33-8.57-5.16a13.49 13.49 0 0 1 -.31-4.12 52.3 52.3 0 0 0 11.63 5c7.12 2 11.91 2.84 19.45 1.57a59.57 59.57 0 0 0 14.62-4.56c.92-.46 2-1.48 2.1-1.27s.35 3.26.11 3.42zm-4.3-15.92c.21-.07.06-.53 0-.94s-1.73-2-1.73-2a3.43 3.43 0 0 0 -.12 1.29 5 5 0 0 0 1.85 1.65z" fill="#1d1d1b"/></svg>
