<?xml version="1.0" encoding="utf-8"?>

<!-- Uploaded to: SVG Repo, www.svgrepo.com, Generator: SVG Repo Mixer Tools -->
<svg width="250px" height="250px" viewBox="0 0 64 64" xmlns="http://www.w3.org/2000/svg">

<path d="m26.12 18.11c1.31.2 3.94 1.56 7.12 4.44s12.44 12.5 12.69 13.31-.37 2.5-2.25 4.75-3.12 3.06-3.87 2.69-1.57-.82-1.57-.82-5.18 6.19-8.12 7.38-6.44 2.25-10.63-1-5.25-6.38-3.75-10.44 4.88-11.12 4.88-11.12a2 2 0 0 1 -.62-2.5c.74-1.5 4.12-7 6.12-6.69z" fill="#1d1d1b"/>

<path d="m26.43 19.61c.62-.62 4.69 3.31 9.25 7.94s8 8.06 8 9.06-1.94 3.81-2.68 4.19-.93.75-.75.37 1.38-4.5 1.13-4.69-.31-.43-.56-.31-1.38 4.5-1.57 4.31-1.62-1.25-1.68-1.56 1.5-3.75 1.25-4a2 2 0 0 0 -.82-.37s-1.25 3.81-1.43 3.62-1.13-1-1.13-1 1.19-2.75.88-2.94-.5-.56-.75-.43a12.88 12.88 0 0 0 -1 2.5s-6.88-5.69-9-7.5-3.5-2.13-3.32-3.57 3.99-5.43 4.18-5.62z" fill="#696a9b"/>

<path d="m24.12 24.67c.07-.3 2.25-3 2.62-2.94s.75.38.57.69-2.07 3.38-2.38 3.25-.87-.75-.81-1z" fill="#1d1d1b"/>

<path d="m21.74 28.42c.34-.21 7.88 5.75 10.07 7.63s5.12 4.95 4.81 5.25a11.38 11.38 0 0 1 -1.13.87s-.06-1.56-.43-1.62-.25-.25-.38-.07.15 2.17.06 2.38a4.93 4.93 0 0 1 -.83.83s-.08-2.66-.33-2.75-.92.38-.84.54.46 2.88.46 2.88l-.71.79s-.29-3-.58-3-.79.29-.67.58a16.12 16.12 0 0 1 .55 3.3 13.91 13.91 0 0 1 -4.34 2.91 9.51 9.51 0 0 1 -8.08-2.54c-2.29-2.42-2.92-6-1.5-9.79a56.8 56.8 0 0 1 3.87-8.19z" fill="#92a0d1"/>

<path d="m23 34.36a5.67 5.67 0 0 1 7.8 2.75c1.5 3.58-3.38 9.08-7.38 6.87-3.26-1.79-4.68-6.87-.42-9.62z" fill="#1d1d1b"/>

<path d="m23.83 35.82a3.93 3.93 0 0 1 5.39 1.9c1 2.48-2.34 6.28-5.1 4.76a3.82 3.82 0 0 1 -.29-6.66z" fill="#fab900"/>

<g fill="#1d1d1b">

<path d="m24.08 37.9c.08-.25.62-.37.71-.08a12.81 12.81 0 0 1 .08 3.08c-.17.21-.79.08-.88-.08a17 17 0 0 1 .09-2.92z"/>

<path d="m26 37.61c0-.35.92-.17.92.08a8.29 8.29 0 0 1 -.22 2.31c-.21.21-.58.55-.71.13a17.75 17.75 0 0 1 .01-2.52z"/>

<path d="m12.29 39.82c.26-.29 2-.17 1.83.08a7.73 7.73 0 0 0 1.08 8c3 3.58 5.92 4.63 7.71 4.75s4.29 0 4.42.21.21 1.12 0 1.25a10.82 10.82 0 0 1 -7.71-.63c-3.79-1.83-6.17-4.16-7.25-6.87s-.54-6.29-.08-6.79z"/>

<path d="m55.79 28.36c-.34.08-1.5 1.33-4.17 4.83s-13.62 15.81-18.17 19.75-7.83 5.75-10.33 5.34-11.33-4.5-13-8.25-.67-7.5.08-9.75 7.5-14.75 10.17-18.92 10.92-15.75 10.92-15.75-.47-.87-.84-.67c-1.66.92-9.25 12.17-13.75 19.75s-10.7 18.09-9.83 23.42 7.67 9.17 13.58 11.42 10-1.25 16.42-7.09 20.13-22.75 20.33-23.16-1.08-1-1.41-.92zm-23.63-10.42c.38-.21 8.17-10.66 8.38-11s-1.09-1.12-1.46-1-8.35 10.84-8.25 11c.25.54.96 1.21 1.33 1zm5 5c.33-.12 15.84-17.58 15.84-17.79s-1-1.58-1.46-1.33-15.71 17.64-15.71 18c.04.25 1 1.33 1.33 1.18zm3.17 1.8c.16.16 1 1.08 1.21.95s13-14.08 13.16-14.41-1-1.21-1.29-1.25-13.41 14.45-13.08 14.75zm3 5.58c0 .29 1 1.25 1.21 1.17s11.46-11.92 11.62-12.42-1.08-1.54-1.54-1.5-11.29 12.52-11.29 12.79z"/>

</g>

</svg>
